<svg width="72" height="72" viewBox="0 0 72 72" fill="none" xmlns="http://www.w3.org/2000/svg">
<g clip-path="url(#clip0_527_14)">
<path d="M63 25.8469V8.55C63.0026 7.72301 62.8419 6.90366 62.527 6.13896C62.2121 5.37426 61.7492 4.67929 61.1651 4.09393C60.5809 3.50857 59.8868 3.04435 59.1228 2.72792C58.3587 2.41149 57.5397 2.24907 56.7127 2.25H39.4257C38.2921 2.25234 37.2052 2.70154 36.4008 3.50016L1.84081 38.0503C0.662112 39.2328 0.000244141 40.8343 0.000244141 42.5039C0.000244141 44.1735 0.662112 45.775 1.84081 46.9575L18.2939 63.4106C19.476 64.5896 21.0773 65.2517 22.7468 65.2517C24.4163 65.2517 26.0177 64.5896 27.1997 63.4106L61.7499 28.8717C62.5487 28.0675 62.998 26.9805 63 25.8469V25.8469ZM49.5 20.25C48.61 20.25 47.74 19.9861 47 19.4916C46.2599 18.9972 45.6832 18.2943 45.3426 17.4721C45.002 16.6498 44.9129 15.745 45.0865 14.8721C45.2601 13.9992 45.6887 13.1974 46.318 12.568C46.9474 11.9387 47.7492 11.5101 48.6221 11.3365C49.495 11.1628 50.3998 11.252 51.2221 11.5925C52.0444 11.9331 52.7472 12.5099 53.2416 13.2499C53.7361 13.99 54 14.86 54 15.75C54 16.9435 53.5259 18.0881 52.682 18.932C51.8381 19.7759 50.6935 20.25 49.5 20.25Z" fill="#1AA090"/>
<path d="M69.75 9C69.1532 9 68.5809 9.23705 68.159 9.65901C67.737 10.081 67.5 10.6533 67.5 11.25V29.1614L30.7532 65.9095C30.5355 66.1164 30.3614 66.3647 30.2412 66.6399C30.1209 66.9151 30.057 67.2116 30.0532 67.5119C30.0493 67.8122 30.1056 68.1103 30.2188 68.3884C30.3319 68.6666 30.4996 68.9194 30.712 69.1317C30.9243 69.3441 31.1771 69.5118 31.4553 69.6249C31.7335 69.7381 32.0315 69.7944 32.3318 69.7905C32.6321 69.7867 32.9286 69.7228 33.2038 69.6025C33.479 69.4823 33.7273 69.3082 33.9342 69.0905L70.7779 32.2467C71.1699 31.853 71.4797 31.3853 71.6895 30.8709C71.8992 30.3565 72.0048 29.8055 72 29.25V11.25C72 10.6533 71.7629 10.081 71.341 9.65901C70.919 9.23705 70.3467 9 69.75 9V9Z" fill="#1AA090"/>
</g>
<defs>
<clipPath id="clip0_527_14">
<rect width="72" height="72" fill="white"/>
</clipPath>
</defs>
</svg>
