<svg width="72" height="72" viewBox="0 0 72 72" fill="none" xmlns="http://www.w3.org/2000/svg">
<path d="M25.0522 40.8462L5.87842 60.02" stroke="#1AA090" stroke-width="4.5"/>
<path d="M31.2954 47.0898L12.1216 66.2636" stroke="#1AA090" stroke-width="4.5"/>
<path d="M12.1218 66.2634C11.2939 67.0913 10.171 67.5565 9.0001 67.5565C7.82924 67.5565 6.70634 67.0913 5.87842 66.2634" stroke="#1AA090" stroke-width="4.5" stroke-linecap="round" stroke-linejoin="round"/>
<path d="M5.87849 60.0203C5.05057 60.8482 4.58545 61.9711 4.58545 63.1419C4.58545 64.3128 5.05057 65.4357 5.87849 66.2636" stroke="#1AA090" stroke-width="4.5" stroke-linecap="round" stroke-linejoin="round"/>
<path d="M67.6844 24.3235C67.6844 26.9324 67.1705 29.5157 66.1722 31.926C65.1738 34.3363 63.7105 36.5263 61.8657 38.3711C60.021 40.2158 57.8309 41.6792 55.4206 42.6775C53.0104 43.6759 50.427 44.1898 47.8182 44.1898C45.2093 44.1898 42.626 43.6759 40.2157 42.6775C37.8054 41.6792 35.6153 40.2158 33.7706 38.3711C31.9258 36.5263 30.4625 34.3363 29.4641 31.926C28.4658 29.5157 27.9519 26.9324 27.9519 24.3235C27.9519 19.0547 30.045 14.0016 33.7706 10.276C37.4962 6.55032 42.5493 4.45728 47.8182 4.45728C50.427 4.45728 53.0104 4.97113 55.4206 5.9695C57.8309 6.96788 60.021 8.43121 61.8657 10.276C63.7105 12.1207 65.1738 14.3108 66.1722 16.721C67.1705 19.1313 67.6844 21.7146 67.6844 24.3235Z" stroke="#1AA090" stroke-width="4.5" stroke-linecap="round" stroke-linejoin="round"/>
<path d="M25.052 40.8462L31.2954 47.0896" stroke="#1AA090" stroke-width="4.5" stroke-linecap="round" stroke-linejoin="round"/>
<path d="M28.1738 43.9682L33.7707 38.3713" stroke="#1AA090" stroke-width="4.5" stroke-linecap="round" stroke-linejoin="round"/>
<path d="M19.7231 46.1755L25.9665 52.4189" stroke="#1AA090" stroke-width="4.5" stroke-linecap="round" stroke-linejoin="round"/>
<path d="M58.8552 24.3235C58.8552 27.2506 57.6924 30.0579 55.6226 32.1277C53.5528 34.1975 50.7455 35.3603 47.8184 35.3603" stroke="#1AA090" stroke-width="4.5" stroke-linecap="round" stroke-linejoin="round"/>
</svg>
