<svg width="60" height="51" viewBox="0 0 60 51" fill="none" xmlns="http://www.w3.org/2000/svg">
<path d="M54.435 15.8099L59.124 11.1209L54.882 6.87891L49.758 11.9999C46.608 10.1099 42.936 8.99991 39 8.99991C27.423 8.99991 18 18.4199 18 29.9999C18 41.5799 27.423 50.9999 39 50.9999C50.577 50.9999 60 41.5799 60 29.9999C59.9976 24.738 58.0103 19.6706 54.435 15.8099ZM39 44.9999C30.729 44.9999 24 38.2709 24 29.9999C24 21.7289 30.729 14.9999 39 14.9999C47.271 14.9999 54 21.7289 54 29.9999C54 38.2709 47.271 44.9999 39 44.9999Z" fill="#1AA090"/>
<path d="M36 21H42V33H36V21ZM33 0H45V6H33V0ZM3 15H15V21H3V15ZM3 39H15V45H3V39ZM0 27H11.97V33H0V27Z" fill="#1AA090"/>
</svg>
